HIERARCHY
ROOT Hips
{
	OFFSET 0.00000 0.00000 0.00000
	CHANNELS 6 Xposition Yposition Zposition Zrotation Yrotation Xrotation 
	JOINT LHipJoint
	{
		OFFSET 0 0 0
		CHANNELS 3 Zrotation Yrotation Xrotation
		JOINT LeftHip
		{
			OFFSET 1.26600 -1.82114 0.91038
			CHANNELS 3 Zrotation Yrotation Xrotation
			JOINT LeftKnee
			{
				OFFSET 2.50076 -6.87080 0.00000
				CHANNELS 3 Zrotation Yrotation Xrotation
				JOINT LeftAnkle
				{
					OFFSET 2.57364 -7.07102 0.00000
					CHANNELS 3 Zrotation Yrotation Xrotation
					JOINT LeftToe
					{
						OFFSET 0.13572 -0.37290 1.97004
						CHANNELS 3 Zrotation Yrotation Xrotation
						End Site
						{
							OFFSET 0.00000 -0.00000 1.01383
						}
					}
				}
			}
		}
	}
	JOINT RHipJoint
	{
		OFFSET 0 0 0
		CHANNELS 3 Zrotation Yrotation Xrotation
		JOINT RightHip
		{
			OFFSET -1.20803 -1.82114 0.91038
			CHANNELS 3 Zrotation Yrotation Xrotation
			JOINT RightKnee
			{
				OFFSET -2.54916 -7.00377 0.00000
				CHANNELS 3 Zrotation Yrotation Xrotation
				JOINT RightAnkle
				{
					OFFSET -2.56374 -7.04382 0.00000
					CHANNELS 3 Zrotation Yrotation Xrotation
					JOINT RightToe
					{
						OFFSET -0.23520 -0.64621 2.09921
						CHANNELS 3 Zrotation Yrotation Xrotation
						End Site
						{
							OFFSET -0.00000 -0.00000 1.10065
						}
					}
				}
			}
		}
	}
	JOINT lowerback
	{
		OFFSET 0 0 0
		CHANNELS 3 Zrotation Yrotation Xrotation
		JOINT Chest
		{
			OFFSET 0.05492 2.10797 -0.12074
			CHANNELS 3 Zrotation Yrotation Xrotation
			JOINT Chest2
			{
				OFFSET 0.04577 2.11592 -0.04483
				CHANNELS 3 Zrotation Yrotation Xrotation
				JOINT lowerneck
				{
					OFFSET 0 0 0
					CHANNELS 3 Zrotation Yrotation Xrotation
					JOINT Neck
					{
						OFFSET -0.10759 1.80167 0.15770
						CHANNELS 3 Zrotation Yrotation Xrotation
						JOINT Head
						{
							OFFSET 0.09237 1.77509 -0.40848
							CHANNELS 3 Zrotation Yrotation Xrotation
							End Site
							{
								OFFSET 0.03805 1.84093 -0.15754
							}
						}
					}
				}
				JOINT LeftCollar
				{
					OFFSET 0 0 0
					CHANNELS 3 Zrotation Yrotation Xrotation
					JOINT LeftShoulder
					{
						OFFSET 3.42372 1.09575 -0.28209
CHANNELS 3 Zrotation Xrotation Yrotation
						JOINT LeftElbow
						{
OFFSET 0 -4.956810 0.000000
CHANNELS 3 Zrotation Xrotation Yrotation
							JOINT LeftWrist
							{
OFFSET 0 -3.409150 0.000000
CHANNELS 3 Zrotation Xrotation Yrotation
								JOINT lhand
								{
									OFFSET 0 0 0
CHANNELS 3 Zrotation Xrotation Yrotation
									JOINT LFingers
									{
OFFSET 0 -0.616400 0.000000
CHANNELS 3 Zrotation Xrotation Yrotation
										End Site
										{
OFFSET 0 -0.496960 0.000000
										}
									}
								}
								JOINT LThumb
								{
OFFSET 0 0.000000 0.000000
CHANNELS 3 Zrotation Xrotation Yrotation
									End Site
									{
OFFSET 0 -0.504550 0.504550
									}
								}
							}
						}
					}
				}
				JOINT RightCollar
				{
					OFFSET 0 0 0
					CHANNELS 3 Zrotation Yrotation Xrotation
					JOINT RightShoulder
					{
						OFFSET -3.24731 1.15872 -0.32221
CHANNELS 3 Zrotation Xrotation Yrotation
						JOINT RightElbow
						{
OFFSET 0 -5.352000 0.000000
CHANNELS 3 Zrotation Xrotation Yrotation
							JOINT RightWrist
							{
OFFSET 0 -3.437210 -0.000000
CHANNELS 3 Zrotation Xrotation Yrotation
								JOINT rhand
								{
									OFFSET 0 0 0
CHANNELS 3 Zrotation Xrotation Yrotation
									JOINT RFingers
									{
OFFSET 0 -0.720090 0.000000
CHANNELS 3 Zrotation Xrotation Yrotation
										End Site
										{
OFFSET 0 -0.580560 0.000000
										}
									}
								}
								JOINT RThumb
								{
OFFSET 0 0.000000 0.000000
CHANNELS 3 Zrotation Xrotation Yrotation
									End Site
									{
OFFSET 0 -0.589420 0.589420
									}
								}
							}
						}
					}
				}
			}
		}
	}
}
MOTION
Frames: 12
Frame Time: 0.008333333333333333
13.234800 21.338008 10.281087 -240.675678 -261.866868 841.634708 0.000000 0.000000 0.000000 -7.567951 -10.742040 -51.596049 13.928412 19.092193 71.985758 -0.158927 -18.899983 -11.851490 0.576398 4.861868 13.514982 0.000000 0.000000 0.000000 25.122702 0.151524 0.689595 -2.487288 -9.814418 28.378003 -2.508229 -12.209114 28.580635 -0.821735 -5.783540 16.157851 6.801901 1.806844 16.193177 2.492739 3.896826 2.736133 -2.001629 1.867846 -5.871061 -11.443546 -3.603134 -16.321952 9.346168 -3.916668 32.189268 5.241141 -1.538520 14.168873 0.000000 0.000000 0.000000 3.710092 4.312061 -27.673935 18.226586 -28.446351 4.656725 15.753050 2.889594 -18.815872 0.000000 0.000000 0.000000 -7.125000 0.000000 0.000000 -12.180921 49.086199 1.244232 0.000000 0.000000 0.000000 -5.956055 -1.327287 23.951781 -16.288778 -25.910612 -3.771230 -21.928229 -14.444916 -10.246660 0.000000 0.000000 0.000000 7.125000 0.000000 0.000000 3.611593 18.965019 2.246273
13.521833 21.849168 10.228844 -236.722912 -263.205312 845.564644 0.000000 0.000000 0.000000 -10.645927 -10.158640 -46.584934 11.851578 18.327019 65.517333 -0.174289 -18.022093 -10.997818 0.599469 4.956330 13.784235 0.000000 0.000000 0.000000 23.043013 0.694788 -5.360633 -4.967847 -13.346898 40.682441 -2.248352 -12.153593 27.062490 -0.356813 -3.836541 10.617243 5.615845 1.818531 16.242282 2.188415 3.682729 2.544352 -1.627030 1.763284 -6.173233 -11.049241 -3.721370 -16.028262 9.238828 -4.210233 32.024750 5.064402 -1.632902 14.056278 0.000000 0.000000 0.000000 3.997050 3.821477 -26.871764 19.351960 -29.853631 5.204916 15.513069 2.954350 -18.553625 0.000000 0.000000 0.000000 -7.125000 0.000000 0.000000 -12.318062 48.788204 1.167142 0.000000 0.000000 0.000000 -5.293939 -0.753854 20.362306 -15.580685 -24.948843 -3.467254 -22.489829 -12.596015 -10.621892 0.000000 0.000000 0.000000 7.125000 0.000000 0.000000 3.225841 18.516353 2.037651
13.783928 22.333108 10.208010 -231.066716 -264.207199 850.670643 0.000000 0.000000 0.000000 -13.036658 -10.329997 -40.739263 9.797356 17.294074 58.808689 -0.150200 -16.442508 -9.966531 0.827172 5.800677 16.207835 0.000000 0.000000 0.000000 21.305760 0.949444 -10.580809 -8.035251 -16.144258 52.688076 -1.602929 -10.648976 22.796106 -0.331932 -3.702316 10.240676 4.372270 1.809370 16.402954 1.986022 3.442555 2.633874 -1.101235 1.668640 -6.239984 -10.724561 -3.744047 -16.249120 9.154433 -4.313673 31.883616 4.945111 -1.649512 14.044185 0.000000 0.000000 0.000000 4.033074 3.340795 -25.515736 21.118876 -31.966776 6.112850 17.934877 0.745186 -18.614935 0.000000 0.000000 0.000000 -7.125000 0.000000 0.000000 -10.038077 49.211511 1.052124 0.000000 0.000000 0.000000 -4.660632 -0.401523 17.400750 -15.261314 -24.508805 -3.333621 -23.031638 -12.979723 -10.241887 0.000000 0.000000 0.000000 7.125000 0.000000 0.000000 2.829042 18.879408 1.763577
14.055481 22.771819 10.188072 -224.289145 -264.869791 856.697306 0.000000 0.000000 0.000000 -15.280282 -9.897286 -34.685303 7.817446 15.982923 51.901670 -0.079038 -14.546727 -9.281400 0.693717 5.324216 14.835661 0.000000 0.000000 0.000000 19.837693 0.892920 -15.104845 -11.416119 -18.132022 64.124816 -0.562583 -6.927251 13.481291 -0.301733 -3.531324 9.761837 3.350820 1.681216 16.281794 1.992122 3.086044 2.708676 -0.440634 1.518680 -6.163967 -10.578468 -3.571592 -16.012859 8.839340 -4.028635 31.752261 4.824630 -1.554310 13.882197 0.000000 0.000000 0.000000 3.754203 3.146068 -23.897607 22.917112 -33.997905 7.091891 21.288219 -0.812915 -19.549233 0.000000 0.000000 0.000000 -7.125000 0.000000 0.000000 -7.075155 50.707590 0.999345 0.000000 0.000000 0.000000 -4.430709 -0.055634 15.183456 -14.959527 -24.089707 -3.209448 -23.655337 -14.319589 -10.339857 0.000000 0.000000 0.000000 7.125000 0.000000 0.000000 2.390967 18.720261 1.498444
14.318026 23.176256 10.175018 -221.157925 -264.636462 859.101357 0.000000 0.000000 0.000000 -16.398447 -9.235340 -28.745032 6.019399 14.446623 45.058582 0.043647 -12.120893 -9.091136 0.239156 3.147446 8.689403 0.000000 0.000000 0.000000 19.370340 0.811082 -18.800582 -14.145455 -19.157125 72.647864 -0.019123 -5.034006 4.111523 -0.144209 -2.447501 6.744238 3.135150 1.586393 16.115950 2.121792 2.925159 2.722691 -0.142354 1.447898 -6.080889 -10.258306 -3.477691 -16.034603 8.541328 -3.890426 32.065681 4.683842 -1.492477 13.991083 0.000000 0.000000 0.000000 4.256553 3.394384 -24.123198 25.028937 -36.233279 8.307026 23.481100 -4.219205 -19.805289 0.000000 0.000000 0.000000 -7.125000 0.000000 0.000000 -4.974447 51.350320 0.779683 0.000000 0.000000 0.000000 -4.411219 0.428516 15.466999 -15.124676 -24.319471 -3.277105 -24.685957 -16.278218 -9.491043 0.000000 0.000000 0.000000 7.125000 0.000000 0.000000 1.622649 19.556251 0.986220
14.561155 23.516930 10.168023 -213.876436 -264.894609 866.040963 0.000000 0.000000 0.000000 -17.945152 -8.958177 -23.299241 4.406914 12.682211 38.191681 0.025121 -10.003893 -7.425911 0.279979 3.397099 9.387050 0.000000 0.000000 0.000000 18.254581 0.772260 -22.212051 -15.564207 -19.521549 76.930476 0.043088 -3.785756 -2.249085 -0.055868 -1.523659 4.190907 2.616261 1.570866 15.568540 1.979886 2.775323 2.605429 0.046695 1.380521 -5.926686 -10.398262 -3.469683 -15.919113 8.652808 -3.879121 32.256319 4.768547 -1.488883 14.055072 0.000000 0.000000 0.000000 4.197007 3.049684 -22.595619 26.397887 -37.598818 9.129366 23.523733 -5.286128 -19.621554 0.000000 0.000000 0.000000 -7.125000 0.000000 0.000000 -4.881902 51.163030 0.742677 0.000000 0.000000 0.000000 -3.887470 0.323277 12.799019 -14.830780 -23.909812 -3.157021 -24.290218 -14.217823 -9.796163 0.000000 0.000000 0.000000 7.125000 0.000000 0.000000 1.917693 19.256529 1.178550
14.790589 23.793011 10.177114 -207.625377 -264.384723 872.310479 0.000000 0.000000 0.000000 -18.622849 -7.918264 -18.977139 3.120546 10.886925 31.900192 -0.003310 -8.446180 -5.852629 0.618990 5.026945 13.986920 0.000000 0.000000 0.000000 17.791672 1.855883 -24.564566 -15.262550 -19.453054 76.026131 -0.135816 -0.546642 -7.177272 -0.246000 -3.191071 8.811099 2.095408 1.561566 14.974950 2.002469 2.649635 2.219223 0.401822 1.318855 -6.038485 -9.895082 -3.185077 -15.821977 8.150030 -3.447220 32.746497 4.566897 -1.303112 14.172146 0.000000 0.000000 0.000000 4.398810 3.512529 -21.552199 27.735583 -38.871605 9.957338 24.003402 -6.112708 -18.609065 0.000000 0.000000 0.000000 -7.125000 0.000000 0.000000 -4.146746 50.167694 0.529066 0.000000 0.000000 0.000000 -3.809204 0.537154 12.978864 -14.717766 -23.751445 -3.111385 -23.787527 -14.115676 -10.581286 0.000000 0.000000 0.000000 7.125000 0.000000 0.000000 2.307750 18.446756 1.460146
15.011806 23.961130 10.200057 -201.873272 -264.076668 878.110526 0.000000 0.000000 0.000000 -19.392101 -7.002075 -15.437924 2.260598 9.388383 27.018504 0.003772 -6.990065 -4.988241 0.551677 4.750150 13.198799 0.000000 0.000000 0.000000 17.526868 2.497404 -26.031159 -13.547038 -18.970308 70.815692 -0.338485 1.264327 -10.613121 -0.074091 -1.658613 4.566156 1.546329 1.357307 14.259619 1.949134 2.259219 2.013235 0.747967 1.134750 -5.883447 -10.004564 -2.873436 -15.727736 8.195874 -2.995433 32.551940 4.666142 -1.121560 14.008854 0.000000 0.000000 0.000000 4.976760 4.020173 -21.343646 29.011242 -40.030575 10.767974 23.923363 -6.405530 -19.164125 0.000000 0.000000 0.000000 -7.125000 0.000000 0.000000 -4.364193 50.745652 0.619046 0.000000 0.000000 0.000000 -3.853166 0.796428 14.581453 -15.219432 -24.450924 -3.316259 -24.802100 -15.227928 -10.260204 0.000000 0.000000 0.000000 7.125000 0.000000 0.000000 1.575709 18.704955 0.987550
15.236841 24.080137 10.243252 -197.436803 -264.250212 882.616467 0.000000 0.000000 0.000000 -19.905001 -6.781842 -13.075426 1.863213 8.575032 24.474689 0.006788 -6.667978 -4.840412 1.111454 6.692562 18.809498 0.000000 0.000000 0.000000 17.217967 2.209096 -26.451169 -10.850520 -17.859715 62.293498 -0.592148 3.673260 -13.749287 -0.083985 -1.868594 5.142716 1.107844 1.192567 13.586843 1.674429 1.930543 1.724897 0.779911 0.973724 -5.819638 -9.497926 -2.799593 -15.943586 7.797732 -2.889262 33.004124 4.453914 -1.062493 14.229291 0.000000 0.000000 0.000000 6.193539 4.548334 -22.362885 29.579636 -40.530321 11.135466 23.519705 -7.368647 -18.165296 0.000000 0.000000 0.000000 -7.125000 0.000000 0.000000 -4.514373 49.615712 0.514541 0.000000 0.000000 0.000000 -3.383802 0.998465 14.696444 -15.688615 -25.096521 -3.512863 -24.255297 -14.969303 -10.316137 0.000000 0.000000 0.000000 7.125000 0.000000 0.000000 1.965242 18.693117 1.232454
15.458661 24.081256 10.286254 -199.115519 -264.624295 881.010107 0.000000 0.000000 0.000000 -19.983748 -5.353574 -12.674871 1.822896 8.486987 24.203193 -0.034676 -7.915848 -4.779189 0.891773 6.012801 16.823560 0.000000 0.000000 0.000000 17.409238 1.754783 -26.105127 -8.042605 -16.148634 52.713042 -0.773694 6.174804 -15.682708 -0.015378 -0.285902 0.787737 0.675989 0.754183 12.774185 2.004457 1.289936 1.528166 1.497504 0.671218 -5.588990 -9.250533 -2.473837 -16.047623 7.230079 -2.281509 33.321245 4.289351 -0.846257 14.312533 0.000000 0.000000 0.000000 6.469449 4.957137 -22.457874 29.253839 -40.245192 10.924323 21.134514 -8.774827 -15.732487 0.000000 0.000000 0.000000 -7.125000 0.000000 0.000000 -6.230508 46.689185 0.260710 0.000000 0.000000 0.000000 -3.984304 1.157580 16.531561 -16.349860 -25.992751 -3.798001 -24.189975 -15.742577 -9.937265 0.000000 0.000000 0.000000 7.125000 0.000000 0.000000 1.995121 19.111359 1.232590
15.678789 24.053215 10.371834 -193.547184 -265.224482 886.313486 0.000000 0.000000 0.000000 -20.545900 -4.548961 -11.957992 1.861975 8.572549 24.467138 -0.053960 -9.448625 -5.619057 0.594520 4.922129 13.689542 0.000000 0.000000 0.000000 16.994370 1.575175 -24.606800 -5.874105 -14.303664 44.471540 -0.594408 8.385172 -14.073680 -0.012941 -0.732135 2.011951 -0.877761 0.331189 11.962356 2.453880 0.535664 1.641091 2.980611 0.333530 -5.019348 -10.003384 -2.155505 -16.176342 6.922056 -1.459133 33.374702 4.431002 -0.634842 14.283760 0.000000 0.000000 0.000000 6.135921 5.777862 -22.537214 29.271608 -40.260797 10.935842 20.454896 -10.148445 -14.890437 0.000000 0.000000 0.000000 -7.125000 0.000000 0.000000 -6.676256 45.716303 0.118461 0.000000 0.000000 0.000000 -4.914419 0.596920 17.806976 -16.764963 -26.546886 -3.981708 -24.165857 -16.350563 -10.437268 0.000000 0.000000 0.000000 7.125000 0.000000 0.000000 2.034221 18.569259 1.281146
15.894776 24.048817 10.456596 -200.711516 -265.540235 878.659307 0.000000 0.000000 0.000000 -19.823867 -3.320300 -11.029820 1.881222 8.614170 24.595528 -0.115201 -11.053975 -5.865488 0.517334 4.609899 12.799048 0.000000 0.000000 0.000000 17.667857 3.777774 -21.093941 -4.407526 -12.683107 38.194589 -0.457999 7.835532 -12.438908 -0.000412 0.129298 -0.355283 -0.453023 0.238661 11.177069 2.470818 0.460271 1.742193 2.766157 0.283529 -4.470582 -9.653492 -2.224743 -15.871423 6.422877 -1.490612 33.785265 4.175504 -0.667682 14.400465 0.000000 0.000000 0.000000 6.823270 6.129976 -23.251079 28.680739 -39.735324 10.556061 19.440011 -10.412554 -15.430881 0.000000 0.000000 0.000000 -7.125000 0.000000 0.000000 -7.740292 46.149225 0.221044 0.000000 0.000000 0.000000 -4.625822 0.268713 17.398757 -16.868513 -26.684134 -4.028116 -24.216592 -16.745058 -10.921662 0.000000 0.000000 0.000000 7.125000 0.000000 0.000000 2.021002 18.037723 1.296733
